<svg width="185" height="48" viewBox="0 0 185 48" fill="none" xmlns="http://www.w3.org/2000/svg">
<path d="M34.4818 45.1839C30.889 46.9092 26.9165 47.6925 22.9378 47.46C18.9591 47.2275 15.1048 45.9869 11.7375 43.8549C8.37015 41.7229 5.60038 38.7695 3.68862 35.2724C1.77686 31.7753 0.785923 27.8495 0.808987 23.864C0.832052 19.8785 1.86836 15.9644 3.82047 12.4897C5.77258 9.01499 8.57634 6.09383 11.9681 4.00093C15.3599 1.90803 19.2282 0.712139 23.2094 0.525721C27.1906 0.339302 31.1537 1.16848 34.7262 2.93528L29.6429 13.2138C27.8136 12.3091 25.7843 11.8846 23.7458 11.98C21.7072 12.0755 19.7264 12.6878 17.9897 13.7595C16.2529 14.8312 14.8173 16.3269 13.8177 18.1062C12.8181 19.8854 12.2875 21.8896 12.2757 23.9304C12.2638 25.9711 12.7712 27.9813 13.7502 29.772C14.7291 31.5627 16.1473 33.075 17.8716 34.1667C19.5958 35.2584 21.5694 35.8936 23.6067 36.0127C25.644 36.1317 27.6781 35.7306 29.5177 34.8472L34.4818 45.1839Z" fill="url(#paint0_linear_14032_2644)"/>
<ellipse cx="24.0286" cy="23.7205" rx="8.1131" ry="8.1131" fill="#B982FF"/>
<path d="M181.408 31.7755C180.639 31.7755 179.979 31.507 179.429 30.9701C178.885 30.4265 178.617 29.767 178.624 28.9914C178.617 28.2357 178.885 27.5894 179.429 27.0525C179.979 26.5155 180.639 26.2471 181.408 26.2471C182.137 26.2471 182.78 26.5155 183.337 27.0525C183.9 27.5894 184.185 28.2357 184.192 28.9914C184.185 29.5084 184.049 29.9791 183.784 30.4033C183.526 30.8209 183.188 31.1557 182.77 31.4076C182.352 31.6528 181.898 31.7755 181.408 31.7755Z" fill="#B982FF"/>
<path d="M165.77 37.1846C165.14 37.1846 164.54 37.1349 163.97 37.0354C163.4 36.9426 162.899 36.8134 162.469 36.6476L163.662 32.7499C164.112 32.909 164.523 33.0117 164.895 33.0582C165.273 33.1046 165.594 33.078 165.859 32.9786C166.131 32.8792 166.326 32.6903 166.446 32.4118L166.565 32.1334L161.196 16.1846H166.923L169.389 26.7641H169.548L172.054 16.1846H177.821L172.253 32.73C171.974 33.5719 171.57 34.3276 171.04 34.9971C170.516 35.6732 169.826 36.2068 168.971 36.5979C168.116 36.989 167.049 37.1846 165.77 37.1846Z" fill="white"/>
<path d="M159.632 11.0938V31.4574H154.144V11.0938H159.632Z" fill="white"/>
<path d="M151.347 11.0938V31.4574H145.858V11.0938H151.347Z" fill="white"/>
<path d="M135.716 31.7363C134.059 31.7363 132.64 31.4082 131.46 30.752C130.28 30.0891 129.376 29.1677 128.746 27.9877C128.116 26.8012 127.801 25.4257 127.801 23.8613C127.801 22.2969 128.116 20.9248 128.746 19.7449C129.376 18.5583 130.28 17.6369 131.46 16.9806C132.64 16.3178 134.059 15.9863 135.716 15.9863C137.373 15.9863 138.792 16.3178 139.972 16.9806C141.152 17.6369 142.056 18.5583 142.686 19.7449C143.316 20.9248 143.631 22.2969 143.631 23.8613C143.631 25.4257 143.316 26.8012 142.686 27.9877C142.056 29.1677 141.152 30.0891 139.972 30.752C138.792 31.4082 137.373 31.7363 135.716 31.7363ZM135.756 27.6795C136.22 27.6795 136.621 27.5237 136.959 27.2122C137.297 26.9006 137.559 26.4565 137.744 25.8798C137.93 25.3031 138.023 24.617 138.023 23.8216C138.023 23.0195 137.93 22.3334 137.744 21.7633C137.559 21.1866 137.297 20.7425 136.959 20.4309C136.621 20.1194 136.22 19.9636 135.756 19.9636C135.265 19.9636 134.844 20.1194 134.493 20.4309C134.142 20.7425 133.873 21.1866 133.688 21.7633C133.502 22.3334 133.409 23.0195 133.409 23.8216C133.409 24.617 133.502 25.3031 133.688 25.8798C133.873 26.4565 134.142 26.9006 134.493 27.2122C134.844 27.5237 135.265 27.6795 135.756 27.6795Z" fill="white"/>
<path d="M126.283 16.1845V20.1618H116.22V16.1845H126.283ZM118.169 12.5254H123.658V26.5453C123.658 26.7574 123.694 26.9364 123.767 27.0822C123.84 27.2214 123.953 27.3275 124.105 27.4004C124.258 27.4667 124.453 27.4998 124.692 27.4998C124.858 27.4998 125.05 27.4799 125.269 27.4402C125.494 27.4004 125.66 27.3672 125.766 27.3407L126.561 31.1987C126.316 31.2716 125.965 31.3611 125.507 31.4672C125.056 31.5732 124.519 31.6428 123.896 31.676C122.637 31.7422 121.58 31.613 120.724 31.2882C119.869 30.9567 119.226 30.4364 118.796 29.7271C118.365 29.0178 118.156 28.1296 118.169 27.0623V12.5254Z" fill="white"/>
<path d="M99.0459 37.1852V16.1852H104.495V18.85H104.614C104.813 18.3329 105.105 17.859 105.489 17.4281C105.874 16.9906 106.351 16.6426 106.921 16.3841C107.491 16.1189 108.154 15.9863 108.91 15.9863C109.917 15.9863 110.875 16.2548 111.783 16.7917C112.698 17.3287 113.44 18.1738 114.01 19.3272C114.587 20.4806 114.875 21.9788 114.875 23.8216C114.875 25.5848 114.6 27.0465 114.05 28.2065C113.507 29.3665 112.777 30.2316 111.863 30.8017C110.955 31.3717 109.957 31.6568 108.87 31.6568C108.154 31.6568 107.514 31.5408 106.951 31.3088C106.394 31.0701 105.917 30.7486 105.519 30.3443C105.128 29.9333 104.826 29.4693 104.614 28.9522H104.535V37.1852H99.0459ZM104.415 23.8216C104.415 24.564 104.511 25.207 104.704 25.7505C104.902 26.2875 105.181 26.7051 105.539 27.0034C105.903 27.295 106.338 27.4409 106.841 27.4409C107.345 27.4409 107.773 27.2984 108.124 27.0133C108.482 26.7216 108.754 26.3074 108.939 25.7704C109.132 25.2269 109.228 24.5772 109.228 23.8216C109.228 23.0659 109.132 22.4196 108.939 21.8826C108.754 21.3391 108.482 20.9248 108.124 20.6397C107.773 20.3481 107.345 20.2022 106.841 20.2022C106.338 20.2022 105.903 20.3481 105.539 20.6397C105.181 20.9248 104.902 21.3391 104.704 21.8826C104.511 22.4196 104.415 23.0659 104.415 23.8216Z" fill="white"/>
<path d="M85.4337 37.1846C84.804 37.1846 84.2041 37.1349 83.634 37.0354C83.0639 36.9426 82.5635 36.8134 82.1326 36.6476L83.3258 32.7499C83.7765 32.909 84.1875 33.0117 84.5587 33.0582C84.9366 33.1046 85.2581 33.078 85.5232 32.9786C85.795 32.8792 85.9905 32.6903 86.1099 32.4118L86.2292 32.1334L80.8599 16.1846H86.5871L89.053 26.7641H89.2121L91.7178 16.1846H97.4849L91.9167 32.73C91.6383 33.5719 91.2339 34.3276 90.7036 34.9971C90.1799 35.6732 89.4905 36.2068 88.6354 36.5979C87.7803 36.989 86.7131 37.1846 85.4337 37.1846Z" fill="white"/>
<path d="M69.4873 31.4579V16.1852H74.8169V19.0886H74.9759C75.2543 18.0147 75.6952 17.2292 76.2984 16.7321C76.9082 16.2349 77.6208 15.9863 78.4362 15.9863C78.6748 15.9863 78.9101 16.0062 79.1421 16.046C79.3808 16.0791 79.6095 16.1288 79.8282 16.1951V20.8784C79.5564 20.7856 79.2217 20.716 78.824 20.6696C78.4262 20.6232 78.0848 20.6 77.7998 20.6C77.2629 20.6 76.779 20.7226 76.3481 20.9679C75.9239 21.2065 75.5891 21.5446 75.3438 21.9821C75.0986 22.4129 74.9759 22.92 74.9759 23.5034V31.4579H69.4873Z" fill="white"/>
<path d="M66.8995 18.7302H61.2915C61.2518 18.2662 61.1457 17.8453 60.9734 17.4674C60.8076 17.0896 60.5756 16.7648 60.2773 16.493C59.9857 16.2146 59.631 16.0025 59.2134 15.8566C58.7958 15.7042 58.3219 15.6279 57.7915 15.6279C56.8635 15.6279 56.078 15.8533 55.435 16.3041C54.7987 16.7548 54.3147 17.4011 53.9833 18.243C53.6585 19.0848 53.4961 20.0957 53.4961 21.2757C53.4961 22.5219 53.6618 23.5659 53.9933 24.4078C54.3313 25.243 54.8185 25.8727 55.4549 26.297C56.0913 26.7146 56.8569 26.9234 57.7518 26.9234C58.2622 26.9234 58.7196 26.8604 59.1239 26.7345C59.5283 26.6019 59.8796 26.413 60.1779 26.1677C60.4762 25.9224 60.7182 25.6275 60.9038 25.2828C61.096 24.9314 61.2253 24.537 61.2915 24.0995L66.8995 24.1393C66.8332 25.001 66.5913 25.8794 66.1737 26.7742C65.756 27.6625 65.1628 28.4845 64.3938 29.2401C63.6315 29.9892 62.6869 30.5924 61.56 31.0498C60.4331 31.5072 59.1239 31.7359 57.6325 31.7359C55.7631 31.7359 54.0861 31.3348 52.6012 30.5328C51.123 29.7307 49.953 28.5508 49.0913 26.993C48.2362 25.4352 47.8086 23.5294 47.8086 21.2757C47.8086 19.0086 48.2461 17.0995 49.1211 15.5484C49.9961 13.9906 51.176 12.814 52.6609 12.0186C54.1457 11.2165 55.8029 10.8154 57.6325 10.8154C58.9184 10.8154 60.1017 10.9911 61.1822 11.3424C62.2627 11.6937 63.2106 12.2075 64.0259 12.8836C64.8413 13.5531 65.4975 14.3784 65.9947 15.3595C66.4918 16.3405 66.7934 17.4641 66.8995 18.7302Z" fill="white"/>
<defs>
<linearGradient id="paint0_linear_14032_2644" x1="38.8233" y1="5.51103" x2="5.47403" y2="38.8603" gradientUnits="userSpaceOnUse">
<stop stop-color="#18C8FF"/>
<stop offset="1" stop-color="#933FFE"/>
</linearGradient>
</defs>
</svg>
